HIERARCHY
ROOT Hips
{
	OFFSET 0.00000 0.00000 0.00000
	CHANNELS 6 Xposition Yposition Zposition Zrotation Yrotation Xrotation 
	JOINT LHipJoint
	{
		OFFSET 0 0 0
		CHANNELS 3 Zrotation Yrotation Xrotation
		JOINT LeftUpLeg
		{
			OFFSET 1.59715 -1.91394 0.36268
			CHANNELS 3 Zrotation Yrotation Xrotation
			JOINT LeftLeg
			{
				OFFSET 2.53886 -6.97546 0.00000
				CHANNELS 3 Zrotation Yrotation Xrotation
				JOINT LeftFoot
				{
					OFFSET 2.77084 -7.61284 0.00000
					CHANNELS 3 Zrotation Yrotation Xrotation
					JOINT LeftToeBase
					{
						OFFSET 0.19855 -0.54550 2.06057
						CHANNELS 3 Zrotation Yrotation Xrotation
						End Site
						{
							OFFSET 0.00000 -0.00000 1.07182
						}
					}
				}
			}
		}
	}
	JOINT RHipJoint
	{
		OFFSET 0 0 0
		CHANNELS 3 Zrotation Yrotation Xrotation
		JOINT RightUpLeg
		{
			OFFSET -1.71086 -1.91394 0.36268
			CHANNELS 3 Zrotation Yrotation Xrotation
			JOINT RightLeg
			{
				OFFSET -2.59448 -7.12828 0.00000
				CHANNELS 3 Zrotation Yrotation Xrotation
				JOINT RightFoot
				{
					OFFSET -2.80237 -7.69945 0.00000
					CHANNELS 3 Zrotation Yrotation Xrotation
					JOINT RightToeBase
					{
						OFFSET -0.18280 -0.50224 2.06614
						CHANNELS 3 Zrotation Yrotation Xrotation
						End Site
						{
							OFFSET -0.00000 -0.00000 1.07055
						}
					}
				}
			}
		}
	}
	JOINT LowerBack
	{
		OFFSET 0 0 0
		CHANNELS 3 Zrotation Yrotation Xrotation
		JOINT Spine
		{
			OFFSET 0.04838 1.91536 -0.09733
			CHANNELS 3 Zrotation Yrotation Xrotation
			JOINT Spine1
			{
				OFFSET 0.04097 1.92183 -0.02751
				CHANNELS 3 Zrotation Yrotation Xrotation
				JOINT Neck
				{
					OFFSET 0 0 0
					CHANNELS 3 Zrotation Yrotation Xrotation
					JOINT Neck1
					{
						OFFSET 0.18766 3.12816 0.13727
						CHANNELS 3 Zrotation Yrotation Xrotation
						JOINT Head
						{
							OFFSET -0.11178 3.16074 0.02732
							CHANNELS 3 Zrotation Yrotation Xrotation
							End Site
							{
								OFFSET 0.47685 1.04189 0.57898
							}
						}
					}
				}
				JOINT LeftShoulder
				{
					OFFSET 0 0 0
					CHANNELS 3 Zrotation Yrotation Xrotation
					JOINT LeftArm
					{
						OFFSET 3.49325 0.99827 -0.10681
						CHANNELS 3 Zrotation Yrotation Xrotation
						JOINT LeftForeArm
						{
							OFFSET 5.12842 -0.00000 0.00000
							CHANNELS 3 Zrotation Yrotation Xrotation
							JOINT LeftHand
							{
								OFFSET 3.47396 -0.00000 0.00000
								CHANNELS 3 Zrotation Yrotation Xrotation
								JOINT LeftFingerBase
								{
									OFFSET 0 0 0
									CHANNELS 3 Zrotation Yrotation Xrotation
									JOINT LeftHandIndex1
									{
										OFFSET 0.72861 -0.00000 0.00000
										CHANNELS 3 Zrotation Yrotation Xrotation
										End Site
										{
											OFFSET 0.58742 -0.00000 0.00000
										}
									}
								}
								JOINT LThumb
								{
									OFFSET 0 0 0
									CHANNELS 3 Zrotation Yrotation Xrotation
									End Site
									{
										OFFSET 0.59639 -0.00000 0.59639
									}
								}
							}
						}
					}
				}
				JOINT RightShoulder
				{
					OFFSET 0 0 0
					CHANNELS 3 Zrotation Yrotation Xrotation
					JOINT RightArm
					{
						OFFSET -3.23261 1.50670 -0.18692
						CHANNELS 3 Zrotation Yrotation Xrotation
						JOINT RightForeArm
						{
							OFFSET -5.48477 -0.00000 -0.00000
							CHANNELS 3 Zrotation Yrotation Xrotation
							JOINT RightHand
							{
								OFFSET -3.47856 -0.00000 0.00000
								CHANNELS 3 Zrotation Yrotation Xrotation
								JOINT RightFingerBase
								{
									OFFSET 0 0 0
									CHANNELS 3 Zrotation Yrotation Xrotation
									JOINT RightHandIndex1
									{
										OFFSET -0.70997 -0.00000 0.00000
										CHANNELS 3 Zrotation Yrotation Xrotation
										End Site
										{
											OFFSET -0.57240 -0.00000 0.00000
										}
									}
								}
								JOINT RThumb
								{
									OFFSET 0 0 0
									CHANNELS 3 Zrotation Yrotation Xrotation
									End Site
									{
										OFFSET -0.58114 -0.00000 0.58114
									}
								}
							}
						}
					}
				}
			}
		}
	}
}
MOTION
Frames: 13
Frame Time: .0083333
-0.0570 18.2224 -3.5348 -2.9301 0.8276 2.8346 0.0000 0.0000 0.0000 -18.2305 -13.8231 -9.0460 2.3609 9.5805 27.6287 0.8443 2.3526 -18.3598 0.1320 2.3422 6.4524 0.0000 0.0000 0.0000 27.4432 10.5469 -10.4801 -2.9771 -10.6579 31.1347 -0.7667 -9.5115 -22.5965 -2.1427 -9.1573 26.2885 1.9745 -1.0412 1.0705 2.6223 -1.1838 -4.9740 1.6887 -0.6107 -5.7390 -7.0511 -6.7939 -8.4675 -0.2304 -8.2243 19.4090 0.3146 -4.4706 7.6727 -0.0000 0.0000 0.0000 -28.1812 -37.0649 -7.7238 73.5140 -58.9477 -45.7731 -0.0000 0.0000 -5.4028 32.1481 30.0977 17.4929 -7.1250 0.0000 -0.0000 1.3352 64.3702 0.6263 -0.0000 0.0000 0.0000 20.4932 36.8613 -10.0299 -85.3612 59.9185 -55.9838 0.0000 -0.0000 -15.8471 -25.9030 7.0662 -3.4189 7.1250 -0.0000 -0.0000 0.6438 -22.1338 0.3538
-0.0546 18.2206 -3.5361 -2.9638 0.7938 2.8679 0.0000 0.0000 0.0000 -18.1911 -13.7898 -9.1024 2.3669 9.5918 27.6648 0.8455 2.3701 -18.3811 0.1261 2.2887 6.3043 0.0000 0.0000 0.0000 27.4608 10.5628 -10.5346 -2.9811 -10.6644 31.1563 -0.7627 -9.4723 -22.5265 -2.1678 -9.2072 26.4456 1.9484 -1.0543 1.0370 2.6729 -1.1998 -5.0171 1.7571 -0.6162 -5.7637 -7.0138 -6.7567 -8.2736 -0.3143 -8.1772 19.2461 0.2969 -4.4523 7.5774 -0.0000 -0.0000 0.0000 -32.0274 -35.3586 -4.8308 76.6407 -59.3148 -48.4571 -0.0000 0.0000 -4.0827 32.2445 29.2528 17.1323 -7.1250 0.0000 -0.0000 1.8008 63.4844 0.8076 -0.0000 -0.0000 0.0000 24.2027 35.6904 -7.1480 -88.7557 59.9942 -58.9225 0.0000 -0.0000 -15.0193 -25.9964 7.3095 -3.5503 7.1250 -0.0000 -0.0000 0.5853 -21.8579 0.3254
-0.0529 18.2184 -3.5366 -3.0029 0.7314 2.8227 0.0000 0.0000 0.0000 -18.1609 -13.7088 -9.0860 2.3735 9.6041 27.7040 0.8459 2.4387 -18.4193 0.1241 2.2706 6.2540 0.0000 0.0000 0.0000 27.5049 10.5727 -10.4884 -2.9827 -10.6669 31.1646 -0.7677 -9.4433 -22.5453 -2.1299 -9.1317 26.2080 1.8927 -1.1283 1.0933 2.7905 -1.2896 -5.1426 1.9210 -0.6551 -5.9240 -7.2245 -6.6171 -7.8360 -0.2556 -8.0002 19.1933 0.3835 -4.3799 7.4889 -0.0000 -0.0000 0.0000 -35.8245 -33.3157 -1.9471 79.2311 -59.5572 -50.6878 -0.0000 0.0000 -2.8866 32.7007 28.6490 17.1086 -7.1250 0.0000 -0.0000 2.6085 62.9541 1.1375 -0.0000 -0.0000 0.0000 27.9487 34.2840 -3.8569 -91.8879 59.9865 -61.6349 0.0000 -0.0000 -14.1935 -26.4852 7.8270 -3.8818 7.1250 -0.0000 -0.0000 0.2532 -21.2485 0.1442
-0.0493 18.2182 -3.5337 -3.0433 0.6348 2.7828 0.0000 0.0000 0.0000 -18.1510 -13.6679 -9.0330 2.3793 9.6150 27.7388 0.8547 2.4805 -18.5286 0.1275 2.3016 6.3401 0.0000 0.0000 0.0000 27.5423 10.6019 -10.4176 -2.9819 -10.6658 31.1608 -0.7672 -9.5021 -22.5924 -2.0746 -9.0197 25.8570 1.9230 -1.1326 1.0348 2.7984 -1.2966 -5.1211 1.9106 -0.6599 -5.8680 -7.2033 -6.5456 -7.8620 -0.1679 -7.9207 19.3116 0.4131 -4.3344 7.5318 -0.0000 -0.0000 0.0000 -39.2699 -31.4749 0.6393 81.3175 -59.7132 -52.4880 -0.0000 0.0000 -1.7720 33.1135 28.1237 17.0898 -7.1250 0.0000 -0.0000 3.3102 62.4927 1.4080 -0.0000 -0.0000 0.0000 31.5962 32.5645 -0.9551 -94.6812 59.9170 -64.0529 0.0000 -0.0000 -13.1977 -26.8740 8.0884 -4.0783 7.1250 -0.0000 -0.0000 -0.0150 -20.9275 -0.0086
-0.0467 18.2174 -3.5314 -3.0366 0.5666 2.7893 0.0000 0.0000 0.0000 -18.1751 -13.6807 -9.0122 2.3821 9.6204 27.7559 0.8637 2.4505 -18.6048 0.1385 2.3983 6.6076 0.0000 0.0000 0.0000 27.5228 10.6244 -10.4051 -2.9814 -10.6648 31.1576 -0.7536 -9.5926 -22.5507 -2.0098 -8.8864 25.4406 1.8863 -1.1210 0.9902 2.7899 -1.2855 -5.0979 1.9197 -0.6529 -5.8172 -7.1281 -6.5097 -7.9732 -0.1466 -7.8782 19.3855 0.4071 -4.3073 7.5714 -0.0000 0.0000 0.0000 -42.6442 -29.4930 3.1723 83.0774 -59.8181 -54.0085 -0.0000 0.0000 -0.4323 33.8453 27.9041 17.4235 -7.1250 0.0000 -0.0000 4.3141 62.4513 1.8315 -0.0000 0.0000 0.0000 35.0510 30.6893 1.7009 -96.9875 59.8147 -66.0476 0.0000 -0.0000 -12.2991 -27.0050 8.3728 -4.2441 7.1250 -0.0000 -0.0000 -0.0942 -20.5995 -0.0550
-0.0443 18.2152 -3.5278 -3.1107 0.5358 2.8127 0.0000 0.0000 0.0000 -18.1001 -13.6568 -9.0427 2.3854 9.6265 27.7755 0.8660 2.4835 -18.6438 0.1326 2.3471 6.4658 0.0000 0.0000 0.0000 27.5938 10.6291 -10.4004 -2.9784 -10.6601 31.1418 -0.7503 -9.6030 -22.5301 -1.9694 -8.8021 25.1781 2.0014 -1.0057 0.8940 2.6801 -1.1437 -4.8399 1.7239 -0.5904 -5.4964 -6.7157 -6.6779 -9.0349 -0.2992 -8.0627 19.7556 0.2284 -4.3765 7.8635 -0.0000 0.0000 0.0000 -45.6002 -28.1507 5.4362 83.9816 -59.8627 -54.7904 -0.0000 -0.0000 0.7092 34.6422 27.7011 17.8065 -7.1250 0.0000 -0.0000 5.3980 62.4454 2.2922 -0.0000 0.0000 0.0000 38.3288 28.7487 3.6259 -98.8835 59.6997 -67.6856 0.0000 -0.0000 -11.3889 -27.6069 8.9581 -4.6552 7.1250 -0.0000 -0.0000 -0.4916 -19.8933 -0.2950
-0.0411 18.2143 -3.5242 -3.1166 0.5421 2.8380 0.0000 0.0000 0.0000 -18.1058 -13.6497 -9.0591 2.3844 9.6246 27.7696 0.8604 2.5871 -18.6392 0.1199 2.2323 6.1481 0.0000 0.0000 0.0000 27.5870 10.6313 -10.4054 -2.9783 -10.6598 31.1409 -0.7500 -9.6082 -22.5320 -1.9727 -8.8090 25.1997 1.9896 -1.0082 0.8060 2.6825 -1.1555 -4.6952 1.7282 -0.5954 -5.2931 -6.5868 -6.7230 -9.6619 -0.4377 -8.0706 19.9888 0.1342 -4.3821 8.0421 -0.0000 0.0000 0.0000 -48.7176 -26.3764 7.4741 84.6823 -59.8929 -55.3964 -0.0000 -0.0000 1.2496 34.5645 27.4876 17.6399 -7.1250 0.0000 -0.0000 5.3507 62.1870 2.2395 -0.0000 0.0000 0.0000 41.5074 26.7645 5.8796 -100.4369 59.5844 -69.0260 0.0000 -0.0000 -10.5256 -28.1920 9.3125 -4.9573 7.1250 -0.0000 -0.0000 -0.8857 -19.4409 -0.5404
-0.0370 18.2124 -3.5224 -3.0875 0.5621 2.8509 0.0000 0.0000 0.0000 -18.1483 -13.6632 -9.0801 2.3856 9.6269 27.7766 0.8664 2.5388 -18.6752 0.1407 2.4175 6.6608 0.0000 0.0000 0.0000 27.5321 10.5783 -10.4102 -2.9747 -10.6540 31.1215 -0.7527 -9.5647 -22.5175 -1.9835 -8.8317 25.2703 1.9503 -1.0597 0.7732 2.7042 -1.2287 -4.6162 1.7739 -0.6295 -5.1887 -6.6504 -6.7035 -9.9360 -0.3808 -8.0223 20.0290 0.1569 -4.3569 8.1088 0.0000 -0.0000 0.0000 -51.7502 -24.3586 9.3212 84.8544 -59.8997 -55.5453 -0.0000 -0.0000 1.7007 33.9448 27.1911 17.0970 -7.1250 0.0000 -0.0000 4.6336 61.6898 1.8842 0.0000 -0.0000 0.0000 44.5804 24.7457 8.1898 -101.3777 59.5052 -69.8370 0.0000 -0.0000 -9.8681 -29.0201 9.6907 -5.3350 7.1250 -0.0000 -0.0000 -1.4456 -18.9317 -0.8987
-0.0338 18.2115 -3.5208 -3.0533 0.5818 2.8667 0.0000 0.0000 0.0000 -18.1896 -13.6899 -9.0966 2.3869 9.6292 27.7842 0.8775 2.4454 -18.7402 0.1708 2.6620 7.3391 0.0000 0.0000 0.0000 27.4753 10.5434 -10.4227 -2.9718 -10.6493 31.1061 -0.7616 -9.5005 -22.5414 -1.9963 -8.8584 25.3532 1.8967 -1.0939 0.9289 2.7282 -1.2690 -4.6375 1.8354 -0.6467 -5.2977 -6.7521 -6.6912 -10.1836 -0.3049 -7.9834 20.1417 0.1904 -4.3383 8.1981 0.0000 -0.0000 0.0000 -54.6499 -22.1766 11.1432 84.6153 -59.8902 -55.3384 -0.0000 -0.0000 1.6519 33.3802 26.9691 16.6366 -7.1250 0.0000 -0.0000 3.9815 61.2930 1.5811 0.0000 -0.0000 0.0000 47.5730 22.6209 10.2822 -101.7806 59.4691 -70.1841 0.0000 -0.0000 -9.6123 -30.0415 10.5052 -6.0191 7.1250 -0.0000 -0.0000 -2.0970 -17.8941 -1.3521
-0.0333 18.2105 -3.5208 -3.1247 0.5895 2.8681 0.0000 0.0000 0.0000 -18.0944 -13.6443 -9.1424 2.3903 9.6357 27.8047 0.8856 2.3402 -18.7685 0.1786 2.7224 7.5068 0.0000 0.0000 0.0000 27.5573 10.5536 -10.4011 -2.9659 -10.6397 31.0742 -0.7690 -9.4928 -22.6003 -2.0249 -8.9177 25.5381 1.9083 -1.1324 1.3969 2.7906 -1.2932 -4.8411 1.9129 -0.6575 -5.7796 -6.7753 -6.6413 -10.3341 -0.3715 -7.8863 20.3987 0.1721 -4.3029 8.3072 -0.0000 0.0000 0.0000 -57.4707 -19.7595 12.9135 83.9541 -59.8614 -54.7665 -0.0000 -0.0000 1.1314 32.5870 26.7771 16.0651 -7.1250 0.0000 -0.0000 3.0513 60.8723 1.1808 -0.0000 0.0000 0.0000 50.5447 20.2371 12.3921 -101.8972 59.4584 -70.2845 0.0000 -0.0000 -9.8393 -29.5742 10.7655 -6.0508 7.1250 -0.0000 -0.0000 -1.7474 -17.6514 -1.1358
-0.0315 18.2085 -3.5201 -3.1613 0.6018 2.8672 0.0000 0.0000 0.0000 -18.0486 -13.6344 -9.1420 2.3893 9.6338 27.7988 0.8912 2.2702 -18.7900 0.2000 2.8795 7.9433 0.0000 0.0000 0.0000 27.5971 10.5626 -10.3824 -2.9635 -10.6357 31.0609 -0.7785 -9.4805 -22.6747 -2.0728 -9.0162 25.8460 1.9760 -1.1370 0.6452 2.7890 -1.3449 -4.2495 1.8412 -0.6859 -4.7280 -6.7549 -6.6763 -10.8814 -0.2538 -7.9139 20.0794 0.1911 -4.2942 8.3028 -0.0000 0.0000 0.0000 -59.9336 -18.5140 13.9415 82.3909 -59.7801 -53.4152 -0.0000 -0.0000 0.4927 32.0611 26.5936 15.6631 -7.1250 0.0000 -0.0000 2.4613 60.5341 0.9325 -0.0000 0.0000 0.0000 53.1754 18.8398 13.6058 -101.1638 59.5238 -69.6527 0.0000 -0.0000 -10.1450 -28.2022 10.2289 -5.4397 7.1250 -0.0000 -0.0000 -0.8277 -18.4087 -0.5240
-0.0300 18.2096 -3.5172 -3.1630 0.6180 2.8449 0.0000 0.0000 0.0000 -18.0566 -13.6481 -9.1043 2.3898 9.6347 27.8016 0.8955 2.2119 -18.8048 0.2075 2.9330 8.0923 0.0000 0.0000 0.0000 27.6038 10.5573 -10.3320 -2.9602 -10.6304 31.0431 -0.7724 -9.5348 -22.6683 -2.0422 -8.9535 25.6501 1.9004 -1.1478 0.7698 2.8423 -1.3565 -4.2074 1.9416 -0.6875 -4.7517 -6.7018 -6.6609 -11.2286 -0.3625 -7.8521 20.2101 0.1386 -4.2707 8.4008 0.0000 -0.0000 0.0000 -62.5785 -16.4615 15.2213 80.6387 -59.6663 -51.9020 -0.0000 0.0000 -0.2860 31.1208 26.4462 15.0496 -7.1250 0.0000 -0.0000 1.3717 60.1325 0.5065 0.0000 -0.0000 0.0000 55.7123 16.7332 15.1119 -100.0399 59.6157 -68.6836 0.0000 -0.0000 -10.5160 -27.3375 10.1039 -5.1822 7.1250 -0.0000 -0.0000 -0.2263 -18.6368 -0.1421
-0.0272 18.2098 -3.5135 -3.0528 0.6041 2.8143 0.0000 0.0000 0.0000 -18.2095 -13.6770 -9.0253 2.3908 9.6365 27.8075 0.9014 2.1901 -18.8528 0.2100 2.9506 8.1413 0.0000 0.0000 0.0000 27.4753 10.5222 -10.2897 -2.9595 -10.6292 31.0392 -0.7640 -9.5680 -22.6223 -1.9857 -8.8363 25.2845 1.7868 -1.1630 0.8924 2.8194 -1.3778 -4.1867 1.9852 -0.6942 -4.7970 -6.6986 -6.6375 -11.4037 -0.3516 -7.8087 20.2551 0.1395 -4.2481 8.4466 0.0000 0.0000 0.0000 -65.0268 -14.4118 16.2445 78.5499 -59.4988 -50.1006 -0.0000 0.0000 -1.0673 29.3909 26.0442 13.8910 -7.1250 0.0000 -0.0000 -0.5369 59.2661 -0.1871 0.0000 0.0000 0.0000 58.2221 14.5799 16.4928 -98.3646 59.7340 -67.2375 0.0000 -0.0000 -10.6666 -26.9037 10.1222 -5.0959 7.1250 -0.0000 -0.0000 0.0814 -18.6591 0.0511
